<svg id="Layer_1" data-name="Layer 1" xmlns="http://www.w3.org/2000/svg" viewBox="0 0 452.46 526"><defs><style>.cls-1{fill:#e53865;}</style></defs><path class="cls-1" d="M372.33,648a346.27,346.27,0,0,1-46.57-3.24c-8.4-1.23-16.69-2.78-24.66-4.59-8.37-2-16.59-4.26-24.49-6.82a277.89,277.89,0,0,1-47.14-20.26,266.2,266.2,0,0,1-43-29.38,261.67,261.67,0,0,1-36.65-37.66,267.32,267.32,0,0,1-28.5-44.38A280.16,280.16,0,0,1,102,452.53a291.78,291.78,0,0,1-9.77-51.71c-.2-1.88-.34-3.65-.47-5.35l-.1-1.26c-.18-2-.29-4-.4-6l0-.64C91,385.4,91,383.12,90.9,381l-.11-3.33v-.29l0-3.13a237.51,237.51,0,0,1,1.51-27.5A212.89,212.89,0,0,1,132.87,243.2a233.28,233.28,0,0,1,17.88-21.43,244.39,244.39,0,0,1,20.2-19,258.17,258.17,0,0,1,96.24-50.41A224.27,224.27,0,0,1,322.9,144l3,0a196.18,196.18,0,0,1,54.55,7.72,198.36,198.36,0,0,1,52.5,23.78,193.55,193.55,0,0,1,43.56,38.13,186.76,186.76,0,0,1,30.2,49.71c1.87,4.49,3.57,9.11,5.05,13.7,1.41,4.26,2.7,8.81,3.94,13.84s2.23,10.19,2.89,14c0,0,0,.26.05.3.79,5,1.37,9.61,1.78,14.14.45,5.12.7,9.75.78,14.17.14,5.17,0,10.17-.15,13.95v.16a178.75,178.75,0,0,1-3.7,29.09,150.16,150.16,0,0,1-24.21,55.74A146.76,146.76,0,0,1,473,455.35a156,156,0,0,1-23.79,18.08,178.74,178.74,0,0,1-52.76,21.81,184.48,184.48,0,0,1-28,4.42c-4.41.34-8.5.5-12.5.5h-2.09c-2,0-4.9-.1-7.88-.33-3.17-.26-5.76-.56-8.2-.94a128.64,128.64,0,0,1-56-23.77,132.53,132.53,0,0,1-38.68-45,124.84,124.84,0,0,1-14.31-57.42c0-2.31,0-4.68.14-7.21s.29-5,.6-7.67a102.66,102.66,0,0,1,2.92-15.27,109.77,109.77,0,0,1,11.84-27.83,113,113,0,0,1,42.14-41,99.29,99.29,0,0,1,28.43-10.61,89.62,89.62,0,0,1,17.72-1.8,84.17,84.17,0,0,1,13.49,1.08,81.4,81.4,0,0,1,29.59,11.17c8.14,5.05,15.49,12.38,19.14,16.3a20.76,20.76,0,0,1-29.19,29.49,57.8,57.8,0,0,0-11.11-8.29,37.65,37.65,0,0,0-13.94-4c-1-.08-2-.12-3.07-.12A41.79,41.79,0,0,0,326,308.62a52.89,52.89,0,0,0-14.43,6.69A62.64,62.64,0,0,0,299,326.14a63.78,63.78,0,0,0-9.37,13.62,57.51,57.51,0,0,0-5.23,14.95,54.22,54.22,0,0,0-1,7.66c-.07,1.31-.09,2.56-.06,3.71v.1c0,1.23.13,2.65.24,4a70.88,70.88,0,0,0,10.31,31A72.47,72.47,0,0,0,304.1,414a77,77,0,0,0,12.8,10.31,64.11,64.11,0,0,0,28.81,10.36h.18c1.19.12,2.45.16,3.44.19H350c.88,0,1.72,0,2.67-.08,2.66-.14,5.52-.44,8.55-.88a116.68,116.68,0,0,0,17.45-4,113.17,113.17,0,0,0,31.69-15.28,88.15,88.15,0,0,0,12.55-10.71,74.81,74.81,0,0,0,9.72-12.21c13.59-21.16,13.7-46.49,11.4-64a120.3,120.3,0,0,0-9.25-33.46,113,113,0,0,0-18.51-28.7A118,118,0,0,0,390,243.35a122.35,122.35,0,0,0-31.66-13.92A119.2,119.2,0,0,0,326.48,225l-2.14,0a147.34,147.34,0,0,0-35.67,5.4A184.94,184.94,0,0,0,253.36,244a181.43,181.43,0,0,0-31.79,20.45,161.5,161.5,0,0,0-25.93,26.22,140.18,140.18,0,0,0-18.32,31,144.46,144.46,0,0,0-10,35,160.1,160.1,0,0,0-1.74,18.65l-.1,2.47,0,2.5c0,1.68-.05,3.3,0,4.75V386c0,1.44,0,2.79.06,4,0,0,0,1.49,0,1.49,0,1.22.07,2.36.14,3.46,0,0,0,.24,0,.24a226.9,226.9,0,0,0,5.38,39.49,211.23,211.23,0,0,0,12.25,37.69A206.61,206.61,0,0,0,228,538.13a226.64,226.64,0,0,0,67.54,45.94c22,9.95,49.63,17.7,79.94,22.43h.06A20.87,20.87,0,0,1,372.35,648Z" transform="translate(-79.77 -133)"/><path d="M325.87,155a185.14,185.14,0,0,1,51.49,7.28A187.34,187.34,0,0,1,427,184.76a182.59,182.59,0,0,1,41.11,36,176.2,176.2,0,0,1,28.44,46.81c1.75,4.23,3.35,8.57,4.74,12.88,1.33,4,2.56,8.34,3.73,13.09s2.1,9.64,2.73,13.27l0,.14c.75,4.74,1.3,9.11,1.68,13.38.43,4.88.67,9.27.74,13.44.14,4.85,0,9.66-.14,13.29v.11a168.05,168.05,0,0,1-3.46,27.24,139.27,139.27,0,0,1-22.42,51.69,136.16,136.16,0,0,1-18.62,21.24,145,145,0,0,1-22.1,16.78,167.47,167.47,0,0,1-49.51,20.45,172.27,172.27,0,0,1-26.26,4.16c-4.08.32-7.89.47-11.64.47h-1.93c-1.82,0-4.52-.09-7.2-.3-2.86-.23-5.17-.5-7.34-.84a117.66,117.66,0,0,1-51.21-21.76A121.51,121.51,0,0,1,252.88,425a113.86,113.86,0,0,1-13-52.37c0-2.14,0-4.33.13-6.67.08-2.17.26-4.52.54-6.9a93.06,93.06,0,0,1,2.61-13.66,99,99,0,0,1,10.66-25.06,102.14,102.14,0,0,1,38-37,88.1,88.1,0,0,1,25.26-9.44,78,78,0,0,1,15.56-1.59,72.67,72.67,0,0,1,11.72.94,70.15,70.15,0,0,1,25.55,9.65c7.07,4.38,13.62,10.94,16.89,14.46a9.76,9.76,0,0,1-13.72,13.86,68.66,68.66,0,0,0-13.53-10,48.85,48.85,0,0,0-18-5.16c-1.33-.11-2.66-.16-4-.16a53,53,0,0,0-14.6,2.1,64.41,64.41,0,0,0-17.42,8.06,76.12,76.12,0,0,0-25.66,28.67,68.09,68.09,0,0,0-6.22,17.8,66.07,66.07,0,0,0-1.16,9.21c-.09,1.59-.11,3.12-.08,4.56s.15,3.23.28,4.78a81.6,81.6,0,0,0,23.63,50.62,88.82,88.82,0,0,0,14.65,11.82,75.19,75.19,0,0,0,33.83,12.06h.12c1.49.15,3,.21,4.21.24H350c1.05,0,2.11,0,3.29-.09,3-.17,6.17-.5,9.51-1a127.6,127.6,0,0,0,19.12-4.4,124.15,124.15,0,0,0,34.78-16.81,98.63,98.63,0,0,0,14.09-12,85.59,85.59,0,0,0,11.13-14c15.34-23.9,15.54-52,13-71.33a131.16,131.16,0,0,0-10.13-36.54,123.34,123.34,0,0,0-20.28-31.46A129.2,129.2,0,0,0,395.81,234a133.6,133.6,0,0,0-34.53-15.18,130.47,130.47,0,0,0-34.8-4.86l-2.35,0a158.3,158.3,0,0,0-38.35,5.79,195.57,195.57,0,0,0-37.4,14.44,191.6,191.6,0,0,0-33.69,21.67,172.44,172.44,0,0,0-27.72,28,151.68,151.68,0,0,0-19.76,33.47,155.66,155.66,0,0,0-10.75,37.67A172.58,172.58,0,0,0,154.6,375l-.09,2.57,0,2.61c0,1.77-.05,3.47,0,5.11v.83c0,1.53,0,3,.07,4.38l0,1.38c0,1.34.07,2.61.15,3.82v.15a238,238,0,0,0,5.63,41.32,222.69,222.69,0,0,0,12.88,39.65,217.86,217.86,0,0,0,47.07,69.14,237.45,237.45,0,0,0,70.79,48.17c22.88,10.34,51.5,18.39,82.79,23.27h0A9.87,9.87,0,0,1,372.35,637h0a336.21,336.21,0,0,1-45-3.12c-8.1-1.2-16.1-2.69-23.81-4.44-8-1.88-15.91-4.08-23.54-6.55a267.86,267.86,0,0,1-45.26-19.46,255.3,255.3,0,0,1-41.21-28.13,250.48,250.48,0,0,1-35.1-36.06,257,257,0,0,1-27.34-42.56,269,269,0,0,1-18.55-47.2,280.34,280.34,0,0,1-9.4-49.8c-.19-1.74-.32-3.43-.45-5.07l-.1-1.27c-.16-1.9-.27-3.83-.37-5.7l0-.65c-.14-2.13-.21-4.31-.28-6.36l-.1-3.32,0-3.13a226.42,226.42,0,0,1,1.44-26.2,202,202,0,0,1,38.52-98.26,219.56,219.56,0,0,1,17-20.4A233.55,233.55,0,0,1,178,211.24,247.2,247.2,0,0,1,270.16,163a213,213,0,0,1,52.93-8l2.78,0m0-22-3.1,0h-.07a235.25,235.25,0,0,0-58.34,8.76l-.15,0a269,269,0,0,0-100.28,52.53l-.05,0a254.69,254.69,0,0,0-21.09,19.79l0,0A245,245,0,0,0,124,236.67a229.49,229.49,0,0,0-28.59,51.66l0,.07a227.65,227.65,0,0,0-14,57.07,246.52,246.52,0,0,0-1.59,28.78l0,3.16c0,.2,0,.39,0,.58l.1,3.33c.07,2.21.15,4.56.31,7l0,.56c.11,1.92.23,4.08.42,6.29l.09,1.18c.13,1.67.28,3.58.5,5.62a302.71,302.71,0,0,0,10.13,53.59,291.65,291.65,0,0,0,20.08,51.08,278.16,278.16,0,0,0,29.7,46.25,272,272,0,0,0,38.18,39.24A278.34,278.34,0,0,0,224.1,622.7l.11,0a289.45,289.45,0,0,0,49,21.06c8.21,2.66,16.71,5,25.3,7.05l.16,0c8.25,1.87,16.82,3.47,25.48,4.74A357,357,0,0,0,372.27,659h.06a31.87,31.87,0,0,0,5-63.35h-.06c-29.35-4.58-56-12-77.08-21.58l-.06,0a215.44,215.44,0,0,1-64.28-43.68,196,196,0,0,1-42.36-62.21l0-.1a199.14,199.14,0,0,1-11.6-35.7,215.71,215.71,0,0,1-5.13-37.54.71.71,0,0,0,0-.14v-.14a1.48,1.48,0,0,1,0-.21c-.06-.84-.09-1.87-.12-3.06l0-1.41a1.55,1.55,0,0,0,0-.22c0-1.05-.05-2.31-.05-3.64v-1.06c0-1.29,0-2.8,0-4.36l0-2.42.09-2.35a148.38,148.38,0,0,1,1.62-17.38A133.79,133.79,0,0,1,187.43,326a129.57,129.57,0,0,1,16.89-28.59A149.92,149.92,0,0,1,228.48,273a170.05,170.05,0,0,1,29.79-19.16l.08,0A173.9,173.9,0,0,1,291.54,241a136.07,136.07,0,0,1,33-5l2,0A108.48,108.48,0,0,1,355.4,240a111.47,111.47,0,0,1,28.81,12.68A107.37,107.37,0,0,1,408,272.77a102.06,102.06,0,0,1,16.68,25.85l0,.07a109.43,109.43,0,0,1,8.39,30.43c2.05,15.68,2,38.25-9.72,56.56l-.07.12A64.07,64.07,0,0,1,415,396.19a77.16,77.16,0,0,1-11,9.38l-.06.05a102.14,102.14,0,0,1-28.63,13.76A104.69,104.69,0,0,1,359.58,423c-2.67.39-5.21.65-7.52.78-.77,0-1.42.06-2.07.06h-.45c-.55,0-1.68-.05-2.49-.13h-.17l-.12,0h-.1a53.27,53.27,0,0,1-23.83-8.66,66.89,66.89,0,0,1-11-8.83,60.81,60.81,0,0,1-8.57-10.81,59.69,59.69,0,0,1-8.72-26.2c-.1-1.12-.19-2.3-.2-3.19a1.48,1.48,0,0,0,0-.21c0-.87,0-1.83.05-2.87a45,45,0,0,1,.78-6.12,46.56,46.56,0,0,1,4.24-12.06,52.6,52.6,0,0,1,7.74-11.26l0-.05a52.25,52.25,0,0,1,10.33-8.94A42.07,42.07,0,0,1,329,319.2a31,31,0,0,1,8.55-1.26q1.11,0,2.19.09a26.46,26.46,0,0,1,9.79,2.82,47.82,47.82,0,0,1,8.74,6.64,31.76,31.76,0,0,0,44.65-45.11c-4.92-5.29-12.63-12.72-21.41-18.17a92.43,92.43,0,0,0-33.6-12.66,94.72,94.72,0,0,0-15.26-1.23,100.49,100.49,0,0,0-19.89,2,110,110,0,0,0-31.57,11.76,124.05,124.05,0,0,0-46.28,45,120.93,120.93,0,0,0-13,30.63,115.25,115.25,0,0,0-3.22,16.85c-.33,2.91-.56,5.77-.66,8.51s-.17,5.22-.15,7.73a135.84,135.84,0,0,0,15.59,62.47A143.67,143.67,0,0,0,275.31,484a139.67,139.67,0,0,0,60.86,25.77c2.7.42,5.54.75,8.94,1h.09c3.28.26,6.44.33,8.53.37H356c4.29,0,8.65-.17,13.33-.53A195.75,195.75,0,0,0,399,505.94a189.64,189.64,0,0,0,56-23.14,166.73,166.73,0,0,0,25.5-19.37,157.79,157.79,0,0,0,21.61-24.66,161.44,161.44,0,0,0,26-59.81A191.23,191.23,0,0,0,532,348.22v-.37c.15-3.93.31-9.15.16-14.62-.09-4.66-.35-9.52-.82-14.86-.43-4.81-1-9.67-1.88-14.91l0-.24,0-.14V303c-.7-4-1.67-9.26-3.06-14.79-1.3-5.27-2.66-10.05-4.17-14.63-1.57-4.84-3.36-9.71-5.33-14.47a198,198,0,0,0-32-52.58,204.55,204.55,0,0,0-46.05-40.29,209.5,209.5,0,0,0-113-33.23Z" transform="translate(-79.77 -133)"/></svg>